<svg width="20" height="20" viewBox="0 0 20 20" fill="none" xmlns="http://www.w3.org/2000/svg">
<rect width="20" height="20" fill="#E5E5E5"/>
<g clip-path="url(#clip0_0_1)">
<rect width="1440" height="1072" transform="translate(-1145 -57.1996)" fill="#17161B"/>
<g filter="url(#filter0_d_0_1)">
<rect x="-1145" y="-57.1996" width="1440" height="120" fill="white" fill-opacity="0.01" shape-rendering="crispEdges"/>
</g>
<rect x="-295" y="-10.1996" width="330" height="41" rx="8" fill="white" fill-opacity="0.08"/>
<path fill-rule="evenodd" clip-rule="evenodd" d="M9.61181 0C14.9117 0 19.2226 4.15769 19.2226 9.26915C19.2226 11.6807 18.2631 13.8802 16.6928 15.5309L19.7826 18.5047C20.0718 18.7836 20.0728 19.2348 19.7836 19.5137C19.6395 19.6545 19.449 19.724 19.2595 19.724C19.071 19.724 18.8815 19.6545 18.7365 19.5156L15.6093 16.508C13.9643 17.7786 11.8785 18.5392 9.61181 18.5392C4.31194 18.5392 0 14.3806 0 9.26915C0 4.15769 4.31194 0 9.61181 0ZM9.61181 1.42778C5.12814 1.42778 1.48041 4.94488 1.48041 9.26915C1.48041 13.5934 5.12814 17.1115 9.61181 17.1115C14.0945 17.1115 17.7422 13.5934 17.7422 9.26915C17.7422 4.94488 14.0945 1.42778 9.61181 1.42778Z" fill="white"/>
</g>
<defs>
<filter id="filter0_d_0_1" x="-1155" y="-63.1996" width="1460" height="140" filterUnits="userSpaceOnUse" color-interpolation-filters="sRGB">
<feFlood flood-opacity="0" result="BackgroundImageFix"/>
<feColorMatrix in="SourceAlpha" type="matrix" values="0 0 0 0 0 0 0 0 0 0 0 0 0 0 0 0 0 0 127 0" result="hardAlpha"/>
<feOffset dy="4"/>
<feGaussianBlur stdDeviation="5"/>
<feComposite in2="hardAlpha" operator="out"/>
<feColorMatrix type="matrix" values="0 0 0 0 1 0 0 0 0 1 0 0 0 0 1 0 0 0 0.07 0"/>
<feBlend mode="normal" in2="BackgroundImageFix" result="effect1_dropShadow_0_1"/>
<feBlend mode="normal" in="SourceGraphic" in2="effect1_dropShadow_0_1" result="shape"/>
</filter>
<clipPath id="clip0_0_1">
<rect width="1440" height="1072" fill="white" transform="translate(-1145 -57.1996)"/>
</clipPath>
</defs>
</svg>
